<svg id="visual" viewBox="0 0 960 540" width="960" height="540" xmlns="http://www.w3.org/2000/svg" xmlns:xlink="http://www.w3.org/1999/xlink" version="1.1"><rect x="0" y="0" width="960" height="540" fill="#1b004b"></rect><path d="M0 378L22.8 380.5C45.7 383 91.3 388 137 378.5C182.7 369 228.3 345 274 338.8C319.7 332.7 365.3 344.3 411.2 346C457 347.7 503 339.3 548.8 343.7C594.7 348 640.3 365 686 364C731.7 363 777.3 344 823 336.5C868.7 329 914.3 333 937.2 335L960 337L960 541L937.2 541C914.3 541 868.7 541 823 541C777.3 541 731.7 541 686 541C640.3 541 594.7 541 548.8 541C503 541 457 541 411.2 541C365.3 541 319.7 541 274 541C228.3 541 182.7 541 137 541C91.3 541 45.7 541 22.8 541L0 541Z" fill="#6600ff"></path><path d="M0 410L22.8 407.2C45.7 404.3 91.3 398.7 137 391.3C182.7 384 228.3 375 274 370.5C319.7 366 365.3 366 411.2 372.3C457 378.7 503 391.3 548.8 399.8C594.7 408.3 640.3 412.7 686 409.3C731.7 406 777.3 395 823 384.5C868.7 374 914.3 364 937.2 359L960 354L960 541L937.2 541C914.3 541 868.7 541 823 541C777.3 541 731.7 541 686 541C640.3 541 594.7 541 548.8 541C503 541 457 541 411.2 541C365.3 541 319.7 541 274 541C228.3 541 182.7 541 137 541C91.3 541 45.7 541 22.8 541L0 541Z" fill="#e200b2"></path><path d="M0 404L22.8 411.8C45.7 419.7 91.3 435.3 137 434.2C182.7 433 228.3 415 274 410.7C319.7 406.3 365.3 415.7 411.2 419.7C457 423.7 503 422.3 548.8 420.3C594.7 418.3 640.3 415.7 686 421C731.7 426.3 777.3 439.7 823 440.5C868.7 441.3 914.3 429.7 937.2 423.8L960 418L960 541L937.2 541C914.3 541 868.7 541 823 541C777.3 541 731.7 541 686 541C640.3 541 594.7 541 548.8 541C503 541 457 541 411.2 541C365.3 541 319.7 541 274 541C228.3 541 182.7 541 137 541C91.3 541 45.7 541 22.8 541L0 541Z" fill="#ff0076"></path><path d="M0 456L22.8 460.3C45.7 464.7 91.3 473.3 137 475.2C182.7 477 228.3 472 274 468C319.7 464 365.3 461 411.2 460.2C457 459.3 503 460.7 548.8 457.5C594.7 454.3 640.3 446.7 686 444C731.7 441.3 777.3 443.7 823 450.8C868.7 458 914.3 470 937.2 476L960 482L960 541L937.2 541C914.3 541 868.7 541 823 541C777.3 541 731.7 541 686 541C640.3 541 594.7 541 548.8 541C503 541 457 541 411.2 541C365.3 541 319.7 541 274 541C228.3 541 182.7 541 137 541C91.3 541 45.7 541 22.8 541L0 541Z" fill="#fe5650"></path><path d="M0 480L22.8 482C45.7 484 91.3 488 137 489.8C182.7 491.7 228.3 491.3 274 490.3C319.7 489.3 365.3 487.7 411.2 487.2C457 486.7 503 487.3 548.8 490C594.7 492.7 640.3 497.3 686 496.3C731.7 495.3 777.3 488.7 823 488.5C868.7 488.3 914.3 494.7 937.2 497.8L960 501L960 541L937.2 541C914.3 541 868.7 541 823 541C777.3 541 731.7 541 686 541C640.3 541 594.7 541 548.8 541C503 541 457 541 411.2 541C365.3 541 319.7 541 274 541C228.3 541 182.7 541 137 541C91.3 541 45.7 541 22.8 541L0 541Z" fill="#ed843e"></path></svg>