
<svg id="visual" viewBox="0 0 960 540" width="960" height="540" xmlns="http://www.w3.org/2000/svg" xmlns:xlink="http://www.w3.org/1999/xlink" version="1.1"><rect x="0" y="0" width="960" height="540" fill="#001220"></rect><defs><linearGradient id="grad1_0" x1="43.8%" y1="0%" x2="100%" y2="100%"><stop offset="14.444444444444446%" stop-color="#fbae3c" stop-opacity="1"></stop><stop offset="85.55555555555554%" stop-color="#fbae3c" stop-opacity="1"></stop></linearGradient></defs><defs><linearGradient id="grad1_1" x1="43.8%" y1="0%" x2="100%" y2="100%"><stop offset="14.444444444444446%" stop-color="#fbae3c" stop-opacity="1"></stop><stop offset="85.55555555555554%" stop-color="#f48350" stop-opacity="1"></stop></linearGradient></defs><defs><linearGradient id="grad1_2" x1="43.8%" y1="0%" x2="100%" y2="100%"><stop offset="14.444444444444446%" stop-color="#d96162" stop-opacity="1"></stop><stop offset="85.55555555555554%" stop-color="#f48350" stop-opacity="1"></stop></linearGradient></defs><defs><linearGradient id="grad1_3" x1="43.8%" y1="0%" x2="100%" y2="100%"><stop offset="14.444444444444446%" stop-color="#d96162" stop-opacity="1"></stop><stop offset="85.55555555555554%" stop-color="#af4b6d" stop-opacity="1"></stop></linearGradient></defs><defs><linearGradient id="grad1_4" x1="43.8%" y1="0%" x2="100%" y2="100%"><stop offset="14.444444444444446%" stop-color="#7c3e6b" stop-opacity="1"></stop><stop offset="85.55555555555554%" stop-color="#af4b6d" stop-opacity="1"></stop></linearGradient></defs><defs><linearGradient id="grad1_5" x1="43.8%" y1="0%" x2="100%" y2="100%"><stop offset="14.444444444444446%" stop-color="#7c3e6b" stop-opacity="1"></stop><stop offset="85.55555555555554%" stop-color="#49335c" stop-opacity="1"></stop></linearGradient></defs><defs><linearGradient id="grad1_6" x1="43.8%" y1="0%" x2="100%" y2="100%"><stop offset="14.444444444444446%" stop-color="#1d2540" stop-opacity="1"></stop><stop offset="85.55555555555554%" stop-color="#49335c" stop-opacity="1"></stop></linearGradient></defs><defs><linearGradient id="grad1_7" x1="43.8%" y1="0%" x2="100%" y2="100%"><stop offset="14.444444444444446%" stop-color="#1d2540" stop-opacity="1"></stop><stop offset="85.55555555555554%" stop-color="#001220" stop-opacity="1"></stop></linearGradient></defs><defs><linearGradient id="grad2_0" x1="0%" y1="0%" x2="56.3%" y2="100%"><stop offset="14.444444444444446%" stop-color="#fbae3c" stop-opacity="1"></stop><stop offset="85.55555555555554%" stop-color="#fbae3c" stop-opacity="1"></stop></linearGradient></defs><defs><linearGradient id="grad2_1" x1="0%" y1="0%" x2="56.3%" y2="100%"><stop offset="14.444444444444446%" stop-color="#f48350" stop-opacity="1"></stop><stop offset="85.55555555555554%" stop-color="#fbae3c" stop-opacity="1"></stop></linearGradient></defs><defs><linearGradient id="grad2_2" x1="0%" y1="0%" x2="56.3%" y2="100%"><stop offset="14.444444444444446%" stop-color="#f48350" stop-opacity="1"></stop><stop offset="85.55555555555554%" stop-color="#d96162" stop-opacity="1"></stop></linearGradient></defs><defs><linearGradient id="grad2_3" x1="0%" y1="0%" x2="56.3%" y2="100%"><stop offset="14.444444444444446%" stop-color="#af4b6d" stop-opacity="1"></stop><stop offset="85.55555555555554%" stop-color="#d96162" stop-opacity="1"></stop></linearGradient></defs><defs><linearGradient id="grad2_4" x1="0%" y1="0%" x2="56.3%" y2="100%"><stop offset="14.444444444444446%" stop-color="#af4b6d" stop-opacity="1"></stop><stop offset="85.55555555555554%" stop-color="#7c3e6b" stop-opacity="1"></stop></linearGradient></defs><defs><linearGradient id="grad2_5" x1="0%" y1="0%" x2="56.3%" y2="100%"><stop offset="14.444444444444446%" stop-color="#49335c" stop-opacity="1"></stop><stop offset="85.55555555555554%" stop-color="#7c3e6b" stop-opacity="1"></stop></linearGradient></defs><defs><linearGradient id="grad2_6" x1="0%" y1="0%" x2="56.3%" y2="100%"><stop offset="14.444444444444446%" stop-color="#49335c" stop-opacity="1"></stop><stop offset="85.55555555555554%" stop-color="#1d2540" stop-opacity="1"></stop></linearGradient></defs><defs><linearGradient id="grad2_7" x1="0%" y1="0%" x2="56.3%" y2="100%"><stop offset="14.444444444444446%" stop-color="#001220" stop-opacity="1"></stop><stop offset="85.55555555555554%" stop-color="#1d2540" stop-opacity="1"></stop></linearGradient></defs><g transform="translate(960, 0)"><path d="M0 540C-18.4 508.8 -36.8 477.7 -57.4 472.5C-78 467.4 -100.8 488.2 -119.9 486.4C-139 484.6 -154.2 460.2 -163.1 430.1C-172 400.1 -174.5 364.4 -177.1 337.4C-179.6 310.3 -182.2 291.8 -209.6 303.7C-237.1 315.6 -289.4 358 -326.9 369C-364.4 380 -387.1 359.7 -342.1 303C-297 246.4 -184.3 153.3 -222.2 153.4C-260.1 153.5 -448.6 246.7 -478.1 251C-507.7 255.2 -378.4 170.5 -353.4 134C-328.5 97.6 -407.8 109.3 -404.9 99.8C-402 90.3 -316.8 59.7 -325.6 39.5C-334.4 19.4 -437.2 9.7 -540 0L0 0Z" fill="#0c1c30"></path><path d="M0 472.5C-16.1 445.2 -32.2 418 -50.2 413.5C-68.2 409 -88.2 427.2 -104.9 425.6C-121.6 424.1 -134.9 402.6 -142.7 376.3C-150.5 350 -152.7 318.9 -154.9 295.2C-157.1 271.5 -159.4 255.3 -183.4 265.7C-207.4 276.2 -253.2 313.2 -286.1 322.9C-318.9 332.5 -338.7 314.8 -299.3 265.2C-259.9 215.6 -161.3 134.1 -194.4 134.2C-227.6 134.3 -392.5 215.8 -418.4 219.6C-444.3 223.3 -331.1 149.2 -309.3 117.3C-287.4 85.4 -356.8 95.6 -354.3 87.3C-351.7 79 -277.2 52.2 -284.9 34.6C-292.6 17 -382.6 8.5 -472.5 0L0 0Z" fill="#312c4f"></path><path d="M0 405C-13.8 381.6 -27.6 358.3 -43 354.4C-58.5 350.5 -75.6 366.2 -89.9 364.8C-104.2 363.5 -115.7 345.1 -122.3 322.6C-129 300 -130.9 273.3 -132.8 253C-134.7 232.7 -136.6 218.8 -157.2 227.8C-177.8 236.7 -217.1 268.5 -245.2 276.8C-273.3 285 -290.3 269.8 -256.6 227.3C-222.8 184.8 -138.2 115 -166.7 115C-195.1 115.1 -336.4 185 -358.6 188.2C-380.8 191.4 -283.8 127.9 -265.1 100.5C-246.3 73.2 -305.8 81.9 -303.7 74.8C-301.5 67.7 -237.6 44.8 -244.2 29.7C-250.8 14.5 -327.9 7.3 -405 0L0 0Z" fill="#623965"></path><path d="M0 337.5C-11.5 318 -23 298.5 -35.9 295.3C-48.7 292.1 -63 305.2 -74.9 304C-86.8 302.9 -96.4 287.6 -101.9 268.8C-107.5 250 -109.1 227.8 -110.7 210.8C-112.2 193.9 -113.9 182.3 -131 189.8C-148.2 197.3 -180.9 223.7 -204.3 230.6C-227.8 237.5 -241.9 224.8 -213.8 189.4C-185.7 154 -115.2 95.8 -138.9 95.9C-162.6 95.9 -280.4 154.2 -298.8 156.8C-317.3 159.5 -236.5 106.6 -220.9 83.8C-205.3 61 -254.9 68.3 -253.1 62.4C-251.2 56.5 -198 37.3 -203.5 24.7C-209 12.1 -273.3 6.1 -337.5 0L0 0Z" fill="#96446e"></path><path d="M0 270C-9.2 254.4 -18.4 238.8 -28.7 236.3C-39 233.7 -50.4 244.1 -59.9 243.2C-69.5 242.3 -77.1 230.1 -81.6 215.1C-86 200 -87.3 182.2 -88.5 168.7C-89.8 155.1 -91.1 145.9 -104.8 151.8C-118.5 157.8 -144.7 179 -163.5 184.5C-182.2 190 -193.5 179.9 -171 151.5C-148.5 123.2 -92.2 76.6 -111.1 76.7C-130 76.7 -224.3 123.3 -239.1 125.5C-253.9 127.6 -189.2 85.3 -176.7 67C-164.2 48.8 -203.9 54.6 -202.4 49.9C-201 45.2 -158.4 29.8 -162.8 19.8C-167.2 9.7 -218.6 4.8 -270 0L0 0Z" fill="#c55469"></path><path d="M0 202.5C-6.9 190.8 -13.8 179.1 -21.5 177.2C-29.2 175.3 -37.8 183.1 -45 182.4C-52.1 181.7 -57.8 172.6 -61.2 161.3C-64.5 150 -65.4 136.7 -66.4 126.5C-67.3 116.4 -68.3 109.4 -78.6 113.9C-88.9 118.4 -108.5 134.2 -122.6 138.4C-136.7 142.5 -145.2 134.9 -128.3 113.6C-111.4 92.4 -69.1 57.5 -83.3 57.5C-97.5 57.5 -168.2 92.5 -179.3 94.1C-190.4 95.7 -141.9 63.9 -132.5 50.3C-123.2 36.6 -152.9 41 -151.8 37.4C-150.7 33.9 -118.8 22.4 -122.1 14.8C-125.4 7.3 -164 3.6 -202.5 0L0 0Z" fill="#e9705a"></path><path d="M0 135C-4.6 127.2 -9.2 119.4 -14.3 118.1C-19.5 116.8 -25.2 122.1 -30 121.6C-34.7 121.2 -38.6 115 -40.8 107.5C-43 100 -43.6 91.1 -44.3 84.3C-44.9 77.6 -45.5 72.9 -52.4 75.9C-59.3 78.9 -72.4 89.5 -81.7 92.3C-91.1 95 -96.8 89.9 -85.5 75.8C-74.3 61.6 -46.1 38.3 -55.6 38.3C-65 38.4 -112.1 61.7 -119.5 62.7C-126.9 63.8 -94.6 42.6 -88.4 33.5C-82.1 24.4 -101.9 27.3 -101.2 24.9C-100.5 22.6 -79.2 14.9 -81.4 9.9C-83.6 4.8 -109.3 2.4 -135 0L0 0Z" fill="#fa9845"></path><path d="M0 67.5C-2.3 63.6 -4.6 59.7 -7.2 59.1C-9.7 58.4 -12.6 61 -15 60.8C-17.4 60.6 -19.3 57.5 -20.4 53.8C-21.5 50 -21.8 45.6 -22.1 42.2C-22.4 38.8 -22.8 36.5 -26.2 38C-29.6 39.5 -36.2 44.7 -40.9 46.1C-45.6 47.5 -48.4 45 -42.8 37.9C-37.1 30.8 -23 19.2 -27.8 19.2C-32.5 19.2 -56.1 30.8 -59.8 31.4C-63.5 31.9 -47.3 21.3 -44.2 16.8C-41.1 12.2 -51 13.7 -50.6 12.5C-50.2 11.3 -39.6 7.5 -40.7 4.9C-41.8 2.4 -54.7 1.2 -67.5 0L0 0Z" fill="#fbae3c"></path></g><g transform="translate(0, 540)"><path d="M0 -540C28.6 -564.2 57.2 -588.4 64.4 -530.1C71.5 -471.8 57.2 -331.1 83 -336.9C108.9 -342.7 174.9 -495.1 191.5 -504.9C208 -514.7 175.1 -381.9 180.3 -343.6C185.6 -305.2 229.1 -361.2 265.3 -384.3C301.5 -407.4 330.4 -397.6 309.7 -349.6C288.9 -301.5 218.5 -215.2 216.3 -191.6C214.1 -168.1 280.2 -207.4 318.5 -219.8C356.8 -232.3 367.3 -218 401.1 -210.5C435 -203.1 492.1 -202.5 470.3 -178.4C448.5 -154.2 347.6 -106.6 346.6 -85.4C345.6 -64.3 444.5 -69.7 493.4 -59.9C542.2 -50.1 541.1 -25 540 0L0 0Z" fill="#0c1c30"></path><path d="M0 -472.5C25 -493.7 50.1 -514.8 56.3 -463.8C62.6 -412.9 50 -289.7 72.7 -294.8C95.3 -299.9 153.1 -433.2 167.6 -441.8C182 -450.4 153.2 -334.2 157.8 -300.6C162.4 -267 200.4 -316.1 232.1 -336.3C263.8 -356.5 289.1 -347.9 271 -305.9C252.8 -263.8 191.2 -188.3 189.3 -167.7C187.4 -147.1 245.2 -181.5 278.7 -192.4C312.2 -203.3 321.4 -190.7 351 -184.2C380.6 -177.7 430.6 -177.2 411.5 -156.1C392.4 -135 304.2 -93.2 303.3 -74.8C302.4 -56.3 388.9 -61 431.7 -52.4C474.5 -43.8 473.5 -21.9 472.5 0L0 0Z" fill="#312c4f"></path><path d="M0 -405C21.5 -423.1 42.9 -441.3 48.3 -397.6C53.6 -353.9 42.9 -248.3 62.3 -252.7C81.7 -257.1 131.2 -371.3 143.6 -378.7C156 -386 131.3 -286.4 135.2 -257.7C139.2 -228.9 171.8 -270.9 199 -288.3C226.1 -305.6 247.8 -298.2 232.3 -262.2C216.7 -226.1 163.9 -161.4 162.2 -143.7C160.6 -126.1 210.2 -155.5 238.9 -164.9C267.6 -174.2 275.5 -163.5 300.8 -157.9C326.2 -152.3 369.1 -151.9 352.7 -133.8C336.4 -115.7 260.7 -79.9 260 -64.1C259.2 -48.2 333.4 -52.3 370 -44.9C406.7 -37.6 405.8 -18.8 405 0L0 0Z" fill="#623965"></path><path d="M0 -337.5C17.9 -352.6 35.8 -367.7 40.2 -331.3C44.7 -294.9 35.7 -206.9 51.9 -210.6C68.1 -214.2 109.3 -309.4 119.7 -315.6C130 -321.7 109.4 -238.7 112.7 -214.7C116 -190.7 143.2 -225.8 165.8 -240.2C188.4 -254.7 206.5 -248.5 193.5 -218.5C180.6 -188.4 136.6 -134.5 135.2 -119.8C133.8 -105.1 175.1 -129.6 199.1 -137.4C223 -145.2 229.5 -136.2 250.7 -131.6C271.8 -126.9 307.6 -126.6 293.9 -111.5C280.3 -96.4 217.3 -66.6 216.6 -53.4C216 -40.2 277.8 -43.6 308.4 -37.4C338.9 -31.3 338.2 -15.7 337.5 0L0 0Z" fill="#96446e"></path><path d="M0 -270C14.3 -282.1 28.6 -294.2 32.2 -265.1C35.8 -235.9 28.6 -165.5 41.5 -168.5C54.5 -171.4 87.5 -247.6 95.7 -252.5C104 -257.4 87.5 -191 90.2 -171.8C92.8 -152.6 114.5 -180.6 132.6 -192.2C150.7 -203.7 165.2 -198.8 154.8 -174.8C144.5 -150.7 109.2 -107.6 108.2 -95.8C107.1 -84.1 140.1 -103.7 159.2 -109.9C178.4 -116.2 183.6 -109 200.6 -105.3C217.5 -101.5 246.1 -101.2 235.2 -89.2C224.2 -77.1 173.8 -53.3 173.3 -42.7C172.8 -32.2 222.3 -34.9 246.7 -30C271.1 -25 270.6 -12.5 270 0L0 0Z" fill="#c55469"></path><path d="M0 -202.5C10.7 -211.6 21.5 -220.6 24.1 -198.8C26.8 -176.9 21.4 -124.2 31.1 -126.3C40.8 -128.5 65.6 -185.7 71.8 -189.3C78 -193 65.6 -143.2 67.6 -128.8C69.6 -114.4 85.9 -135.5 99.5 -144.1C113.1 -152.8 123.9 -149.1 116.1 -131.1C108.3 -113.1 81.9 -80.7 81.1 -71.9C80.3 -63 105.1 -77.8 119.4 -82.4C133.8 -87.1 137.7 -81.7 150.4 -78.9C163.1 -76.1 184.6 -75.9 176.4 -66.9C168.2 -57.8 130.4 -40 130 -32C129.6 -24.1 166.7 -26.1 185 -22.5C203.3 -18.8 202.9 -9.4 202.5 0L0 0Z" fill="#e9705a"></path><path d="M0 -135C7.2 -141 14.3 -147.1 16.1 -132.5C17.9 -118 14.3 -82.8 20.8 -84.2C27.2 -85.7 43.7 -123.8 47.9 -126.2C52 -128.7 43.8 -95.5 45.1 -85.9C46.4 -76.3 57.3 -90.3 66.3 -96.1C75.4 -101.9 82.6 -99.4 77.4 -87.4C72.2 -75.4 54.6 -53.8 54.1 -47.9C53.5 -42 70.1 -51.8 79.6 -55C89.2 -58.1 91.8 -54.5 100.3 -52.6C108.7 -50.8 123 -50.6 117.6 -44.6C112.1 -38.6 86.9 -26.6 86.7 -21.4C86.4 -16.1 111.1 -17.4 123.3 -15C135.6 -12.5 135.3 -6.3 135 0L0 0Z" fill="#fa9845"></path><path d="M0 -67.5C3.6 -70.5 7.2 -73.5 8 -66.3C8.9 -59 7.1 -41.4 10.4 -42.1C13.6 -42.8 21.9 -61.9 23.9 -63.1C26 -64.3 21.9 -47.7 22.5 -42.9C23.2 -38.1 28.6 -45.2 33.2 -48C37.7 -50.9 41.3 -49.7 38.7 -43.7C36.1 -37.7 27.3 -26.9 27 -24C26.8 -21 35 -25.9 39.8 -27.5C44.6 -29 45.9 -27.2 50.1 -26.3C54.4 -25.4 61.5 -25.3 58.8 -22.3C56.1 -19.3 43.5 -13.3 43.3 -10.7C43.2 -8 55.6 -8.7 61.7 -7.5C67.8 -6.3 67.6 -3.1 67.5 0L0 0Z" fill="#fbae3c"></path></g></svg>